{
  "accessors": [
    {
      "bufferView": 2,
      "componentType": 5126,
      "count": 48,
      "max": [
        -9.034716606140137,
        2.999998092651367,
        12.014909744262695
      ],
      "min": [
        -10.034716606140137,
        -3.000001907348633,
        9.014908790588379
      ],
      "type": "VEC3"
    },
    {
      "bufferView": 2,
      "byteOffset": 576,
      "componentType": 5126,
      "count": 48,
      "max": [
        1.0,
        -0.0,
        -0.0
      ],
      "min": [
        -1.0,
        -0.0,
        -0.0
      ],
      "type": "VEC3"
    },
    {
      "bufferView": 1,
      "componentType": 5126,
      "count": 48,
      "max": [
        0.5615230202674866,
        0.8583980202674866
      ],
      "min": [
        0.5458980202674866,
        0.8427730202674866
      ],
      "type": "VEC2"
    },
    {
      "bufferView": 0,
      "componentType": 5125,
      "count": 72,
      "type": "SCALAR"
    },
    {
      "bufferView": 2,
      "byteOffset": 1152,
      "componentType": 5126,
      "count": 2000,
      "max": [
        23.965282440185547,
        11.999998092651367,
        17.014911651611328
      ],
      "min": [
        -12.034716606140137,
        -12.000001907348633,
        11.014907836914063
      ],
      "type": "VEC3"
    },
    {
      "bufferView": 2,
      "byteOffset": 25152,
      "componentType": 5126,
      "count": 2000,
      "max": [
        1.0,
        1.0,
        1.0
      ],
      "min": [
        -1.0,
        -1.0,
        -1.0
      ],
      "type": "VEC3"
    },
    {
      "bufferView": 1,
      "byteOffset": 384,
      "componentType": 5126,
      "count": 2000,
      "max": [
        0.9833980202674866,
        0.9111329913139343
      ],
      "min": [
        0.9677730202674866,
        0.8955079913139343
      ],
      "type": "VEC2"
    },
    {
      "bufferView": 0,
      "byteOffset": 288,
      "componentType": 5125,
      "count": 3000,
      "type": "SCALAR"
    },
    {
      "bufferView": 2,
      "byteOffset": 49152,
      "componentType": 5126,
      "count": 21848,
      "max": [
        33.96528244018555,
        14.999999046325684,
        18.014911651611328
      ],
      "min": [
        -35.03471755981445,
        -15.00000286102295,
        2.0149080753326416
      ],
      "type": "VEC3"
    },
    {
      "bufferView": 2,
      "byteOffset": 311328,
      "componentType": 5126,
      "count": 21848,
      "max": [
        1.0,
        1.0,
        1.0
      ],
      "min": [
        -1.0,
        -1.0,
        -1.0
      ],
      "type": "VEC3"
    },
    {
      "bufferView": 1,
      "byteOffset": 16384,
      "componentType": 5126,
      "count": 21848,
      "max": [
        0.3154299855232239,
        0.8583980202674866
      ],
      "min": [
        0.2998049855232239,
        0.8427730202674866
      ],
      "type": "VEC2"
    },
    {
      "bufferView": 0,
      "byteOffset": 12288,
      "componentType": 5125,
      "count": 32772,
      "type": "SCALAR"
    },
    {
      "bufferView": 2,
      "byteOffset": 573504,
      "componentType": 5126,
      "count": 28064,
      "max": [
        35.96528244018555,
        14.999999046325684,
        19.014911651611328
      ],
      "min": [
        -35.03471755981445,
        -15.00000286102295,
        2.0149080753326416
      ],
      "type": "VEC3"
    },
    {
      "bufferView": 2,
      "byteOffset": 910272,
      "componentType": 5126,
      "count": 28064,
      "max": [
        1.0,
        1.0,
        1.0
      ],
      "min": [
        -1.0,
        -1.0,
        -1.0
      ],
      "type": "VEC3"
    },
    {
      "bufferView": 1,
      "byteOffset": 191168,
      "componentType": 5126,
      "count": 28064,
      "max": [
        0.4208979904651642,
        0.8583980202674866
      ],
      "min": [
        0.4052729904651642,
        0.8427730202674866
      ],
      "type": "VEC2"
    },
    {
      "bufferView": 0,
      "byteOffset": 143376,
      "componentType": 5125,
      "count": 42096,
      "type": "SCALAR"
    },
    {
      "bufferView": 2,
      "byteOffset": 1247040,
      "componentType": 5126,
      "count": 4200,
      "max": [
        21.965282440185547,
        11.999998092651367,
        17.014911651611328
      ],
      "min": [
        -29.034717559814453,
        -12.000001907348633,
        7.0149078369140625
      ],
      "type": "VEC3"
    },
    {
      "bufferView": 2,
      "byteOffset": 1297440,
      "componentType": 5126,
      "count": 4200,
      "max": [
        1.0,
        1.0,
        1.0
      ],
      "min": [
        -1.0,
        -1.0,
        -1.0
      ],
      "type": "VEC3"
    },
    {
      "bufferView": 1,
      "byteOffset": 415680,
      "componentType": 5126,
      "count": 4200,
      "max": [
        0.9833980202674866,
        0.9111329913139343
      ],
      "min": [
        0.8271480202674866,
        0.8955079913139343
      ],
      "type": "VEC2"
    },
    {
      "bufferView": 0,
      "byteOffset": 311760,
      "componentType": 5125,
      "count": 6300,
      "type": "SCALAR"
    },
    {
      "bufferView": 2,
      "byteOffset": 1347840,
      "componentType": 5126,
      "count": 1776,
      "max": [
        30.965282440185547,
        13.999999046325684,
        18.014909744262695
      ],
      "min": [
        -32.03471755981445,
        -14.000001907348633,
        3.0149080753326416
      ],
      "type": "VEC3"
    },
    {
      "bufferView": 2,
      "byteOffset": 1369152,
      "componentType": 5126,
      "count": 1776,
      "max": [
        1.0,
        1.0,
        1.0
      ],
      "min": [
        -1.0,
        -1.0,
        -1.0
      ],
      "type": "VEC3"
    },
    {
      "bufferView": 1,
      "byteOffset": 449280,
      "componentType": 5126,
      "count": 1776,
      "max": [
        0.05175799876451492,
        0.9638670086860657
      ],
      "min": [
        0.03613299876451492,
        0.9482420086860657
      ],
      "type": "VEC2"
    },
    {
      "bufferView": 0,
      "byteOffset": 336960,
      "componentType": 5125,
      "count": 2664,
      "type": "SCALAR"
    },
    {
      "bufferView": 2,
      "byteOffset": 1390464,
      "componentType": 5126,
      "count": 9304,
      "max": [
        26.965282440185547,
        12.999999046325684,
        17.014909744262695
      ],
      "min": [
        -22.034717559814453,
        -13.000000953674316,
        1.014907956123352
      ],
      "type": "VEC3"
    },
    {
      "bufferView": 2,
      "byteOffset": 1502112,
      "componentType": 5126,
      "count": 9304,
      "max": [
        1.0,
        1.0,
        1.0
      ],
      "min": [
        -1.0,
        -1.0,
        -1.0
      ],
      "type": "VEC3"
    },
    {
      "bufferView": 1,
      "byteOffset": 463488,
      "componentType": 5126,
      "count": 9304,
      "max": [
        0.5791019797325134,
        0.9287109971046448
      ],
      "min": [
        0.5634769797325134,
        0.9130859971046448
      ],
      "type": "VEC2"
    },
    {
      "bufferView": 0,
      "byteOffset": 347616,
      "componentType": 5125,
      "count": 13956,
      "type": "SCALAR"
    },
    {
      "bufferView": 2,
      "byteOffset": 1613760,
      "componentType": 5126,
      "count": 72,
      "max": [
        31.965282440185547,
        8.999998092651367,
        11.014911651611328
      ],
      "min": [
        30.965282440185547,
        -9.000001907348633,
        10.014907836914063
      ],
      "type": "VEC3"
    },
    {
      "bufferView": 2,
      "byteOffset": 1614624,
      "componentType": 5126,
      "count": 72,
      "max": [
        1.0,
        1.0,
        1.0
      ],
      "min": [
        0.0,
        -1.0,
        0.0
      ],
      "type": "VEC3"
    },
    {
      "bufferView": 1,
      "byteOffset": 537920,
      "componentType": 5126,
      "count": 72,
      "max": [
        0.8779299855232239,
        0.9814450144767761
      ],
      "min": [
        0.8623049855232239,
        0.9658200144767761
      ],
      "type": "VEC2"
    },
    {
      "bufferView": 0,
      "byteOffset": 403440,
      "componentType": 5125,
      "count": 108,
      "type": "SCALAR"
    },
    {
      "bufferView": 2,
      "byteOffset": 1615488,
      "componentType": 5126,
      "count": 3316,
      "max": [
        33.96528244018555,
        13.999999046325684,
        13.014910697937012
      ],
      "min": [
        -27.034717559814453,
        -14.000000953674316,
        2.0149080753326416
      ],
      "type": "VEC3"
    },
    {
      "bufferView": 2,
      "byteOffset": 1655280,
      "componentType": 5126,
      "count": 3316,
      "max": [
        1.0,
        1.0,
        1.0
      ],
      "min": [
        -1.0,
        -1.0,
        -1.0
      ],
      "type": "VEC3"
    },
    {
      "bufferView": 1,
      "byteOffset": 538496,
      "componentType": 5126,
      "count": 3316,
      "max": [
        0.4384770095348358,
        0.8583980202674866
      ],
      "min": [
        0.4228520095348358,
        0.8427730202674866
      ],
      "type": "VEC2"
    },
    {
      "bufferView": 0,
      "byteOffset": 403872,
      "componentType": 5125,
      "count": 4974,
      "type": "SCALAR"
    },
    {
      "bufferView": 2,
      "byteOffset": 1695072,
      "componentType": 5126,
      "count": 144,
      "max": [
        31.965282440185547,
        11.999999046325684,
        9.014911651611328
      ],
      "min": [
        -30.034717559814453,
        -12.000000953674316,
        3.0149080753326416
      ],
      "type": "VEC3"
    },
    {
      "bufferView": 2,
      "byteOffset": 1696800,
      "componentType": 5126,
      "count": 144,
      "max": [
        1.0,
        1.0,
        1.0
      ],
      "min": [
        -1.0,
        -1.0,
        -0.0
      ],
      "type": "VEC3"
    },
    {
      "bufferView": 1,
      "byteOffset": 565024,
      "componentType": 5126,
      "count": 144,
      "max": [
        0.5439450144767761,
        0.8935549855232239
      ],
      "min": [
        0.5283200144767761,
        0.8779299855232239
      ],
      "type": "VEC2"
    },
    {
      "bufferView": 0,
      "byteOffset": 423768,
      "componentType": 5125,
      "count": 216,
      "type": "SCALAR"
    },
    {
      "bufferView": 2,
      "byteOffset": 1698528,
      "componentType": 5126,
      "count": 188,
      "max": [
        32.96528244018555,
        12.999998092651367,
        13.014911651611328
      ],
      "min": [
        24.965282440185547,
        -13.000001907348633,
        10.014907836914063
      ],
      "type": "VEC3"
    },
    {
      "bufferView": 2,
      "byteOffset": 1700784,
      "componentType": 5126,
      "count": 188,
      "max": [
        1.0,
        1.0,
        1.0
      ],
      "min": [
        -1.0,
        -1.0,
        -1.0
      ],
      "type": "VEC3"
    },
    {
      "bufferView": 1,
      "byteOffset": 566176,
      "componentType": 5126,
      "count": 188,
      "max": [
        0.5439450144767761,
        0.9287109971046448
      ],
      "min": [
        0.5283200144767761,
        0.9130859971046448
      ],
      "type": "VEC2"
    },
    {
      "bufferView": 0,
      "byteOffset": 424632,
      "componentType": 5125,
      "count": 282,
      "type": "SCALAR"
    },
    {
      "bufferView": 2,
      "byteOffset": 1703040,
      "componentType": 5126,
      "count": 2840,
      "max": [
        27.965282440185547,
        15.0,
        9.014912605285645
      ],
      "min": [
        -23.034717559814453,
        -15.000001907348633,
        0.01490699965506792
      ],
      "type": "VEC3"
    },
    {
      "bufferView": 2,
      "byteOffset": 1737120,
      "componentType": 5126,
      "count": 2840,
      "max": [
        1.0,
        1.0,
        1.0
      ],
      "min": [
        -1.0,
        -1.0,
        -1.0
      ],
      "type": "VEC3"
    },
    {
      "bufferView": 1,
      "byteOffset": 567680,
      "componentType": 5126,
      "count": 2840,
      "max": [
        0.03418000042438507,
        0.9638670086860657
      ],
      "min": [
        0.01855500042438507,
        0.9482420086860657
      ],
      "type": "VEC2"
    },
    {
      "bufferView": 0,
      "byteOffset": 425760,
      "componentType": 5125,
      "count": 4260,
      "type": "SCALAR"
    },
    {
      "bufferView": 2,
      "byteOffset": 1771200,
      "componentType": 5126,
      "count": 1048,
      "max": [
        26.965282440185547,
        15.0,
        8.014912605285645
      ],
      "min": [
        -31.034717559814453,
        -15.000001907348633,
        1.0149070024490356
      ],
      "type": "VEC3"
    },
    {
      "bufferView": 2,
      "byteOffset": 1783776,
      "componentType": 5126,
      "count": 1048,
      "max": [
        1.0,
        1.0,
        1.0
      ],
      "min": [
        -1.0,
        -1.0,
        -1.0
      ],
      "type": "VEC3"
    },
    {
      "bufferView": 1,
      "byteOffset": 590400,
      "componentType": 5126,
      "count": 1048,
      "max": [
        0.2978520095348358,
        0.8583980202674866
      ],
      "min": [
        0.2822270095348358,
        0.8427730202674866
      ],
      "type": "VEC2"
    },
    {
      "bufferView": 0,
      "byteOffset": 442800,
      "componentType": 5125,
      "count": 1572,
      "type": "SCALAR"
    }
  ],
  "asset": {
    "extras": {
      "author": "Fenrate (https://sketchfab.com/Fenrate)",
      "license": "CC-BY-4.0 (http://creativecommons.org/licenses/by/4.0/)",
      "source": "https://sketchfab.com/3d-models/mclaren-f1-modified-voxel-d0eebfa2c98b4814a3773a1cfb7bb963",
      "title": "Mclaren F1 Modified | Voxel"
    },
    "generator": "Sketchfab-15.47.0",
    "version": "2.0"
  },
  "bufferViews": [
    {
      "buffer": 0,
      "byteLength": 449088,
      "name": "floatBufferViews",
      "target": 34963
    },
    {
      "buffer": 0,
      "byteLength": 598784,
      "byteOffset": 449088,
      "byteStride": 8,
      "name": "floatBufferViews",
      "target": 34962
    },
    {
      "buffer": 0,
      "byteLength": 1796352,
      "byteOffset": 1047872,
      "byteStride": 12,
      "name": "floatBufferViews",
      "target": 34962
    }
  ],
  "buffers": [
    {
      "byteLength": 2844224,
      "uri": "scene.bin"
    }
  ],
  "extensionsUsed": [
    "KHR_materials_transmission",
    "KHR_materials_emissive_strength"
  ],
  "materials": [
    {
      "doubleSided": true,
      "name": "Black",
      "pbrMetallicRoughness": {
        "baseColorFactor": [
          0.01,
          0.01,
          0.01,
          1.0
        ],
        "metallicFactor": 0.0,
        "roughnessFactor": 0.9480563043994134
      }
    },
    {
      "alphaMode": "BLEND",
      "doubleSided": true,
      "extensions": {
        "KHR_materials_transmission": {
          "transmissionFactor": 0.09999999999999998
        }
      },
      "name": "Black_Glass",
      "pbrMetallicRoughness": {
        "baseColorFactor": [
          0.01,
          0.01,
          0.01,
          0.9
        ],
        "metallicFactor": 0.0,
        "roughnessFactor": 0.5
      }
    },
    {
      "doubleSided": true,
      "name": "Body",
      "pbrMetallicRoughness": {
        "baseColorFactor": [
          0.21110509739444117,
          0.21204915656744236,
          0.2135070486048146,
          1.0
        ],
        "metallicFactor": 0.0,
        "roughnessFactor": 0.3
      }
    },
    {
      "doubleSided": true,
      "name": "Gray",
      "pbrMetallicRoughness": {
        "baseColorFactor": [
          0.045,
          0.045,
          0.045,
          1.0
        ],
        "metallicFactor": 0.0,
        "roughnessFactor": 0.3
      }
    },
    {
      "alphaMode": "BLEND",
      "doubleSided": true,
      "extensions": {
        "KHR_materials_transmission": {
          "transmissionFactor": 0.9
        }
      },
      "name": "Gray_Glass",
      "pbrMetallicRoughness": {
        "baseColorFactor": [
          0.03,
          0.03,
          0.03,
          0.25
        ],
        "metallicFactor": 0.0,
        "roughnessFactor": 0.5
      }
    },
    {
      "doubleSided": true,
      "name": "Grill",
      "pbrMetallicRoughness": {
        "baseColorFactor": [
          0.03,
          0.03,
          0.03,
          1.0
        ],
        "metallicFactor": 0.0,
        "roughnessFactor": 0.9612701665379259
      }
    },
    {
      "doubleSided": true,
      "name": "Krem",
      "pbrMetallicRoughness": {
        "baseColorFactor": [
          0.8,
          0.8,
          0.8,
          1.0
        ],
        "metallicFactor": 0.0,
        "roughnessFactor": 0.7710012174519096
      }
    },
    {
      "doubleSided": true,
      "name": "LR_Light",
      "pbrMetallicRoughness": {
        "baseColorFactor": [
          0.7,
          0.42,
          0.0,
          1.0
        ],
        "metallicFactor": 0.0,
        "roughnessFactor": 0.84416891319824
      }
    },
    {
      "doubleSided": true,
      "name": "Light_Gray",
      "pbrMetallicRoughness": {
        "baseColorFactor": [
          0.2,
          0.2,
          0.2,
          1.0
        ],
        "metallicFactor": 0.0,
        "roughnessFactor": 0.7710012174519096
      }
    },
    {
      "doubleSided": true,
      "emissiveFactor": [
        1.0,
        1.0,
        1.0
      ],
      "extensions": {
        "KHR_materials_emissive_strength": {
          "emissiveStrength": 5.0
        }
      },
      "name": "Light_Lamp",
      "pbrMetallicRoughness": {
        "baseColorFactor": [
          0.9,
          0.9,
          0.9,
          1.0
        ],
        "metallicFactor": 0.0,
        "roughnessFactor": 0.84416891319824
      }
    },
    {
      "doubleSided": true,
      "name": "Red_Light",
      "pbrMetallicRoughness": {
        "baseColorFactor": [
          0.7,
          0.021,
          0.021,
          1.0
        ],
        "metallicFactor": 0.0,
        "roughnessFactor": 0.84416891319824
      }
    },
    {
      "doubleSided": true,
      "name": "Tire",
      "pbrMetallicRoughness": {
        "baseColorFactor": [
          0.01,
          0.01,
          0.01,
          1.0
        ],
        "metallicFactor": 0.0,
        "roughnessFactor": 0.97
      }
    },
    {
      "doubleSided": true,
      "name": "White",
      "pbrMetallicRoughness": {
        "baseColorFactor": [
          0.5,
          0.5,
          0.5,
          1.0
        ],
        "metallicFactor": 0.0,
        "roughnessFactor": 0.8626007304711458
      }
    }
  ],
  "meshes": [
    {
      "name": "Object_0",
      "primitives": [
        {
          "attributes": {
            "NORMAL": 1,
            "POSITION": 0,
            "TEXCOORD_0": 2
          },
          "indices": 3,
          "material": 0,
          "mode": 4
        }
      ]
    },
    {
      "name": "Object_1",
      "primitives": [
        {
          "attributes": {
            "NORMAL": 5,
            "POSITION": 4,
            "TEXCOORD_0": 6
          },
          "indices": 7,
          "material": 1,
          "mode": 4
        }
      ]
    },
    {
      "name": "Object_2",
      "primitives": [
        {
          "attributes": {
            "NORMAL": 9,
            "POSITION": 8,
            "TEXCOORD_0": 10
          },
          "indices": 11,
          "material": 2,
          "mode": 4
        }
      ]
    },
    {
      "name": "Object_3",
      "primitives": [
        {
          "attributes": {
            "NORMAL": 13,
            "POSITION": 12,
            "TEXCOORD_0": 14
          },
          "indices": 15,
          "material": 3,
          "mode": 4
        }
      ]
    },
    {
      "name": "Object_4",
      "primitives": [
        {
          "attributes": {
            "NORMAL": 17,
            "POSITION": 16,
            "TEXCOORD_0": 18
          },
          "indices": 19,
          "material": 4,
          "mode": 4
        }
      ]
    },
    {
      "name": "Object_5",
      "primitives": [
        {
          "attributes": {
            "NORMAL": 21,
            "POSITION": 20,
            "TEXCOORD_0": 22
          },
          "indices": 23,
          "material": 5,
          "mode": 4
        }
      ]
    },
    {
      "name": "Object_6",
      "primitives": [
        {
          "attributes": {
            "NORMAL": 25,
            "POSITION": 24,
            "TEXCOORD_0": 26
          },
          "indices": 27,
          "material": 6,
          "mode": 4
        }
      ]
    },
    {
      "name": "Object_7",
      "primitives": [
        {
          "attributes": {
            "NORMAL": 29,
            "POSITION": 28,
            "TEXCOORD_0": 30
          },
          "indices": 31,
          "material": 7,
          "mode": 4
        }
      ]
    },
    {
      "name": "Object_8",
      "primitives": [
        {
          "attributes": {
            "NORMAL": 33,
            "POSITION": 32,
            "TEXCOORD_0": 34
          },
          "indices": 35,
          "material": 8,
          "mode": 4
        }
      ]
    },
    {
      "name": "Object_9",
      "primitives": [
        {
          "attributes": {
            "NORMAL": 37,
            "POSITION": 36,
            "TEXCOORD_0": 38
          },
          "indices": 39,
          "material": 9,
          "mode": 4
        }
      ]
    },
    {
      "name": "Object_10",
      "primitives": [
        {
          "attributes": {
            "NORMAL": 41,
            "POSITION": 40,
            "TEXCOORD_0": 42
          },
          "indices": 43,
          "material": 10,
          "mode": 4
        }
      ]
    },
    {
      "name": "Object_11",
      "primitives": [
        {
          "attributes": {
            "NORMAL": 45,
            "POSITION": 44,
            "TEXCOORD_0": 46
          },
          "indices": 47,
          "material": 11,
          "mode": 4
        }
      ]
    },
    {
      "name": "Object_12",
      "primitives": [
        {
          "attributes": {
            "NORMAL": 49,
            "POSITION": 48,
            "TEXCOORD_0": 50
          },
          "indices": 51,
          "material": 12,
          "mode": 4
        }
      ]
    }
  ],
  "nodes": [
    {
      "children": [
        1
      ],
      "matrix": [
        1.0,
        0.0,
        0.0,
        0.0,
        0.0,
        2.220446049250313e-16,
        -1.0,
        0.0,
        0.0,
        1.0,
        2.220446049250313e-16,
        0.0,
        0.0,
        0.0,
        0.0,
        1.0
      ],
      "name": "Sketchfab_model"
    },
    {
      "children": [
        2,
        3,
        4,
        5,
        6,
        7,
        8,
        9,
        10,
        11,
        12,
        13,
        14
      ],
      "name": "Mclaren F1 MOD.obj.cleaner.materialmerger.gles"
    },
    {
      "mesh": 0,
      "name": "Object_2"
    },
    {
      "mesh": 1,
      "name": "Object_3"
    },
    {
      "mesh": 2,
      "name": "Object_4"
    },
    {
      "mesh": 3,
      "name": "Object_5"
    },
    {
      "mesh": 4,
      "name": "Object_6"
    },
    {
      "mesh": 5,
      "name": "Object_7"
    },
    {
      "mesh": 6,
      "name": "Object_8"
    },
    {
      "mesh": 7,
      "name": "Object_9"
    },
    {
      "mesh": 8,
      "name": "Object_10"
    },
    {
      "mesh": 9,
      "name": "Object_11"
    },
    {
      "mesh": 10,
      "name": "Object_12"
    },
    {
      "mesh": 11,
      "name": "Object_13"
    },
    {
      "mesh": 12,
      "name": "Object_14"
    }
  ],
  "scene": 0,
  "scenes": [
    {
      "name": "Sketchfab_Scene",
      "nodes": [
        0
      ]
    }
  ]
}
